<?xml version="1.0" encoding="utf-8"?>
<!-- Generator: Adobe Illustrator 19.0.0, SVG Export Plug-In . SVG Version: 6.00 Build 0)  -->
<svg version="1.1" id="Layer_1" xmlns="http://www.w3.org/2000/svg" xmlns:xlink="http://www.w3.org/1999/xlink" x="0px" y="0px"
	 viewBox="0 0 332.6 153.3" style="enable-background:new 0 0 332.6 153.3;" xml:space="preserve">
<style type="text/css">
	.st0{fill:#17B1B4;}
	.st1{fill:#145A74;}
	.st2{fill:#72C6E2;}
	.st3{fill:#4EA7B6;}
</style>
<g id="XMLID_1_">
	<path id="XMLID_2_" class="st0" d="M21.7,56.8l-7.1,21.9H5.6L31.7,1h9.5l26.2,77.6h-9.1l-7.1-21.9H21.7z M36.5,11.3l-12,36.9h23.9
		L36.5,11.3z"/>
	<path id="XMLID_5_" class="st0" d="M128.2,20.4c-3.5-6.2-8.3-11-14.5-14.3c-6.2-3.4-12.5-5-19.1-5H76.1v47.1h8.6V9.6h9.9
		c5.1,0,10.1,1.3,14.9,3.9c4.8,2.6,8.6,6.3,11.3,11.2c2.7,4.9,4.1,9.9,4.1,15.2c0,5.2-1.3,10.2-4,15c-2.7,4.8-6.4,8.5-11.2,11.2
		c-4.8,2.7-9.8,4-15.1,4h-9.9V56.7h-8.6v21.9h18.5c6.7,0,13.2-1.7,19.4-5.1c6.2-3.4,11-8.2,14.4-14.3c3.4-6.2,5.1-12.6,5.1-19.3
		C133.5,33.1,131.7,26.6,128.2,20.4"/>
	<path id="XMLID_6_" class="st0" d="M194.3,56.6c0-4-1.1-7.9-3.1-11.5c-2.1-3.7-5-6.5-8.6-8.5c-3.6-2-7.4-3-11.3-3h-5.8
		c-2.2,0-4.3-0.5-6.2-1.6c-2-1.1-3.5-2.6-4.6-4.6c-1.1-2-1.6-4-1.6-6.2c0-2.2,0.6-4.3,1.7-6.3c1.1-2,2.7-3.5,4.6-4.6
		c2-1.1,4-1.6,6.1-1.6h5.9c2,0,4,0.5,6,1.6c2,1.1,3.6,2.6,4.7,4.6c0.9,1.6,1.5,2.5,1.5,2.5v-0.1h8.7c0-1.2-1-3.5-2.8-6.8
		c-1.9-3.4-4.5-5.9-7.8-7.7c-3.4-1.8-6.8-2.8-10.3-2.8h-6.2c-3.5,0-6.9,1-10.2,2.8c-3.3,1.8-5.9,4.4-7.8,7.8
		c-1.9,3.4-2.9,6.9-2.9,10.6c0,3.6,0.9,7.1,2.8,10.5c1.8,3.3,4.4,5.9,7.8,7.8c3.4,1.9,6.9,2.8,10.5,2.8h6.1c2.4,0,4.7,0.6,6.9,1.8
		c2.3,1.3,4.1,3.1,5.4,5.4c1.3,2.3,2,4.7,2,7.2c0,0.2,0,0.3,0,0.5c0.2,0,0.4-0.1,0.5-0.1c1.3,0,2.3,0.5,3,1.2
		c0.3,0.1,0.5,0.2,0.7,0.4c0.2,0.1,0.4,0.2,0.5,0.3c0.3-0.4,0.8-0.7,1.3-0.9C192.3,57.3,193.1,56.8,194.3,56.6"/>
	<path id="XMLID_7_" class="st0" d="M203.1,39.4c0.1-6.8,1.9-13.3,5.3-19.6c3.5-6.3,8.4-11.1,14.8-14.5c6.3-3.4,12.8-5.1,19.5-5.1
		s13.2,1.7,19.6,5.1c3.2,1.8,5.3,3.1,6.1,3.9l-6.3,6.3c-0.4-0.4-1.8-1.2-4.4-2.6c-4.9-2.6-9.9-3.9-15-3.9c-5.1,0-10.1,1.3-15,3.9
		c-4.9,2.6-8.7,6.4-11.5,11.4c-2.8,4.9-4.2,10-4.2,15.4c0,5.4,1.4,10.5,4.2,15.3c2.7,5,6.6,8.8,11.5,11.4c4.9,2.6,9.9,4,15,4
		c5.2,0,10.2-1.3,15-3.9c2.5-1.3,4-2.2,4.4-2.5l6.3,6.3c-0.9,0.9-2.9,2.2-6.1,3.9c-6.4,3.4-12.9,5.2-19.6,5.2s-13.1-1.7-19.5-5.1
		c-6.3-3.4-11.2-8.3-14.8-14.6c-3.5-6.2-5.3-12.7-5.3-19.5V39.4z"/>
	<path id="XMLID_8_" class="st0" d="M265.6,39.4c0.1-6.8,1.9-13.3,5.3-19.6c3.5-6.3,8.4-11.1,14.8-14.5c6.3-3.4,12.8-5.1,19.5-5.1
		c6.7,0,13.2,1.7,19.6,5.1c3.2,1.8,5.3,3.1,6.1,3.9l-6.3,6.3c-0.4-0.4-1.8-1.2-4.3-2.6c-4.9-2.6-9.9-3.9-15-3.9
		c-5.1,0-10.1,1.3-15,3.9c-4.9,2.6-8.7,6.4-11.5,11.4c-2.8,4.9-4.2,10-4.2,15.4c0,5.4,1.4,10.5,4.2,15.3c2.7,5,6.6,8.8,11.5,11.4
		c4.9,2.6,9.9,4,15,4c5.2,0,10.2-1.3,15-3.9c2.5-1.3,4-2.2,4.3-2.5l6.3,6.3c-0.9,0.9-2.9,2.2-6.1,3.9c-6.4,3.4-12.9,5.2-19.6,5.2
		c-6.7,0-13.1-1.7-19.5-5.1c-6.3-3.4-11.2-8.3-14.8-14.6c-3.5-6.2-5.3-12.7-5.3-19.5V39.4z"/>
	<path id="XMLID_9_" class="st1" d="M12.8,152.3c0,0.2-0.1,0.4-0.2,0.5c-0.1,0.1-0.3,0.2-0.5,0.2c-0.3,0-0.6-0.2-0.7-0.5l-1.3-3.1
		H2.7l-1.3,3.1c-0.1,0.3-0.3,0.5-0.7,0.5c-0.2,0-0.4-0.1-0.5-0.2c-0.1-0.1-0.2-0.3-0.2-0.5c0-0.1,0-0.2,0.1-0.3l5.6-13.3
		c0.1-0.3,0.4-0.5,0.7-0.5c0.3,0,0.6,0.2,0.7,0.5l5.6,13.4C12.8,152.1,12.8,152.2,12.8,152.3 M3.2,148.2h6.3l-3.2-7.7L3.2,148.2z"/>
	<path id="XMLID_12_" class="st1" d="M15.2,152.8c-0.2-0.1-0.2-0.3-0.2-0.5v-13.4c0-0.2,0.1-0.4,0.2-0.5c0.1-0.1,0.3-0.2,0.5-0.2
		h4.6c0.8,0,1.5,0.2,2.1,0.5c0.6,0.3,1.1,0.8,1.5,1.3c0.4,0.6,0.5,1.2,0.5,1.9c0,0.7-0.2,1.3-0.5,1.8c-0.4,0.5-0.9,0.9-1.5,1.2
		c0.9,0.2,1.6,0.7,2.1,1.3c0.5,0.6,0.8,1.4,0.8,2.4c0,0.9-0.2,1.6-0.6,2.3c-0.4,0.7-0.9,1.2-1.6,1.6c-0.7,0.4-1.5,0.6-2.4,0.6h-4.9
		C15.6,153,15.4,153,15.2,152.8 M20.4,144.3c0.8,0,1.4-0.2,1.9-0.7c0.5-0.4,0.7-1,0.7-1.8c0-0.7-0.2-1.3-0.7-1.7
		c-0.5-0.4-1.1-0.6-1.9-0.6h-3.9v4.8H20.4z M20.7,151.6c0.9,0,1.7-0.3,2.3-0.8c0.6-0.5,0.9-1.3,0.9-2.2c0-0.9-0.3-1.6-0.9-2.1
		c-0.6-0.5-1.3-0.8-2.3-0.8h-4.2v5.8H20.7z"/>
	<path id="XMLID_16_" class="st1" d="M31.1,152.7c-0.9-0.4-1.6-1.1-2.1-1.9c-0.5-0.8-0.8-1.7-0.8-2.7v-9.3c0-0.2,0.1-0.4,0.2-0.5
		c0.1-0.1,0.3-0.2,0.5-0.2c0.2,0,0.4,0.1,0.5,0.2c0.1,0.1,0.2,0.3,0.2,0.5v9.3c0,0.7,0.2,1.4,0.6,2c0.4,0.6,0.9,1,1.6,1.4
		c0.7,0.3,1.4,0.5,2.3,0.5c0.9,0,1.6-0.2,2.3-0.5c0.7-0.3,1.2-0.8,1.6-1.4c0.4-0.6,0.6-1.2,0.6-2v-9.3c0-0.2,0.1-0.4,0.2-0.5
		c0.1-0.1,0.3-0.2,0.5-0.2c0.2,0,0.4,0.1,0.5,0.2c0.1,0.1,0.2,0.3,0.2,0.5v9.3c0,1-0.3,1.9-0.8,2.7c-0.5,0.8-1.2,1.4-2.1,1.9
		c-0.9,0.4-1.9,0.7-3,0.7C33.1,153.3,32.1,153.1,31.1,152.7"/>
	<path id="XMLID_17_" class="st1" d="M49.8,152.8c-0.1-0.1-0.2-0.3-0.2-0.5v-13.4c0-0.2,0.1-0.4,0.2-0.5c0.1-0.1,0.3-0.2,0.5-0.2
		h3.4c1.4,0,2.7,0.3,3.9,1c1.1,0.6,2,1.5,2.6,2.6c0.6,1.1,0.9,2.4,0.9,3.9c0,1.4-0.3,2.7-0.9,3.9c-0.6,1.1-1.5,2-2.6,2.7
		c-1.1,0.6-2.4,1-3.9,1h-3.4C50.1,153,49.9,153,49.8,152.8 M53.7,151.7c1.2,0,2.2-0.3,3.1-0.8c0.9-0.5,1.6-1.3,2.1-2.2
		c0.5-0.9,0.8-2,0.8-3.2c0-1.2-0.3-2.2-0.8-3.2c-0.5-0.9-1.2-1.7-2.1-2.2c-0.9-0.5-1.9-0.8-3.1-0.8H51v12.3H53.7z"/>
	<path id="XMLID_20_" class="st1" d="M64.5,152.8c-0.1-0.1-0.2-0.3-0.2-0.5v-13.4c0-0.2,0.1-0.4,0.2-0.5c0.1-0.1,0.3-0.2,0.5-0.2
		c0.2,0,0.4,0.1,0.5,0.2c0.1,0.1,0.2,0.3,0.2,0.5v6h9.3v-6c0-0.2,0.1-0.4,0.2-0.5c0.1-0.1,0.3-0.2,0.5-0.2c0.2,0,0.4,0.1,0.5,0.2
		c0.1,0.1,0.2,0.3,0.2,0.5v13.4c0,0.2-0.1,0.4-0.2,0.5c-0.1,0.1-0.3,0.2-0.5,0.2c-0.2,0-0.4-0.1-0.5-0.2c-0.1-0.1-0.2-0.3-0.2-0.5
		v-6.1h-9.3v6.1c0,0.2-0.1,0.4-0.2,0.5c-0.1,0.1-0.3,0.2-0.5,0.2C64.8,153,64.6,153,64.5,152.8"/>
	<path id="XMLID_21_" class="st1" d="M91.7,152.3c0,0.2-0.1,0.4-0.2,0.5c-0.1,0.1-0.3,0.2-0.5,0.2c-0.3,0-0.6-0.2-0.7-0.5l-1.3-3.1
		h-7.4l-1.3,3.1c-0.1,0.3-0.3,0.5-0.7,0.5c-0.2,0-0.4-0.1-0.5-0.2c-0.1-0.1-0.2-0.3-0.2-0.5c0-0.1,0-0.2,0.1-0.3l5.6-13.3
		c0.1-0.3,0.4-0.5,0.7-0.5c0.3,0,0.6,0.2,0.7,0.5l5.6,13.4C91.7,152.1,91.7,152.2,91.7,152.3 M82.1,148.2h6.3l-3.2-7.7L82.1,148.2z"
		/>
	<path id="XMLID_24_" class="st1" d="M94.1,152.8c-0.2-0.1-0.2-0.3-0.2-0.5v-13.4c0-0.2,0.1-0.4,0.2-0.5c0.1-0.1,0.3-0.2,0.5-0.2
		h4.6c0.8,0,1.5,0.2,2.1,0.5c0.6,0.3,1.1,0.8,1.5,1.3c0.4,0.6,0.5,1.2,0.5,1.9c0,0.7-0.2,1.3-0.5,1.8c-0.4,0.5-0.9,0.9-1.5,1.2
		c0.9,0.2,1.6,0.7,2.1,1.3c0.5,0.6,0.8,1.4,0.8,2.4c0,0.9-0.2,1.6-0.6,2.3c-0.4,0.7-0.9,1.2-1.6,1.6c-0.7,0.4-1.5,0.6-2.4,0.6h-4.9
		C94.4,153,94.2,153,94.1,152.8 M99.2,144.3c0.8,0,1.4-0.2,1.9-0.7c0.5-0.4,0.7-1,0.7-1.8c0-0.7-0.2-1.3-0.7-1.7
		c-0.5-0.4-1.1-0.6-1.9-0.6h-3.9v4.8H99.2z M99.6,151.6c0.9,0,1.7-0.3,2.3-0.8c0.6-0.5,0.9-1.3,0.9-2.2c0-0.9-0.3-1.6-0.9-2.1
		c-0.6-0.5-1.3-0.8-2.3-0.8h-4.2v5.8H99.6z"/>
	<path id="XMLID_28_" class="st1" d="M107.4,152.8c-0.1-0.1-0.2-0.3-0.2-0.5v-13.4c0-0.2,0.1-0.4,0.2-0.5c0.1-0.1,0.3-0.2,0.5-0.2
		c0.2,0,0.4,0.1,0.5,0.2c0.1,0.1,0.2,0.3,0.2,0.5v13.4c0,0.2-0.1,0.4-0.2,0.5c-0.1,0.1-0.3,0.2-0.5,0.2
		C107.7,153,107.5,153,107.4,152.8"/>
	<path id="XMLID_29_" class="st1" d="M119.4,152.4c-0.9-0.5-1.6-1.2-2-2.1c0-0.1-0.1-0.2-0.1-0.3c0-0.2,0.1-0.3,0.2-0.5
		c0.1-0.1,0.3-0.2,0.5-0.2c0.2,0,0.3,0,0.4,0.1c0.1,0.1,0.2,0.2,0.3,0.4c0.3,0.6,0.8,1,1.5,1.4c0.7,0.4,1.5,0.5,2.4,0.5
		c1,0,1.9-0.3,2.5-0.8c0.6-0.5,1-1.2,1-2.1c0-0.8-0.3-1.5-0.9-2c-0.6-0.5-1.5-0.9-2.7-1.1c-1.5-0.2-2.6-0.6-3.5-1.4
		c-0.8-0.7-1.3-1.7-1.3-2.7c0-0.8,0.2-1.4,0.6-2c0.4-0.6,1-1,1.7-1.3c0.7-0.3,1.6-0.5,2.5-0.5c1,0,1.9,0.2,2.7,0.7
		c0.8,0.4,1.4,1,1.8,1.7c0.1,0.1,0.1,0.3,0.1,0.5c0,0.2-0.1,0.4-0.3,0.6c-0.1,0-0.2,0.1-0.3,0.1c-0.1,0-0.3,0-0.4-0.1
		c-0.1-0.1-0.2-0.2-0.3-0.3c-0.7-1.1-1.8-1.7-3.2-1.7c-1,0-1.8,0.2-2.4,0.7c-0.6,0.4-0.9,1.1-0.9,1.9c0,1.5,1.2,2.4,3.6,2.7
		c1.6,0.2,2.8,0.7,3.5,1.5c0.8,0.7,1.2,1.7,1.2,2.9c0,0.9-0.2,1.7-0.7,2.3c-0.4,0.7-1,1.1-1.8,1.5c-0.8,0.3-1.6,0.5-2.5,0.5
		C121.4,153.2,120.4,153,119.4,152.4"/>
	<path id="XMLID_30_" class="st1" d="M140.3,138.3c0.1,0.1,0.2,0.3,0.2,0.5c0,0.2-0.1,0.4-0.2,0.5c-0.1,0.1-0.3,0.2-0.5,0.2h-4.6
		v12.8c0,0.2-0.1,0.4-0.2,0.5c-0.1,0.1-0.3,0.2-0.5,0.2c-0.2,0-0.4-0.1-0.5-0.2c-0.1-0.1-0.2-0.3-0.2-0.5v-12.8h-4.5
		c-0.2,0-0.4-0.1-0.5-0.2c-0.1-0.1-0.2-0.3-0.2-0.5c0-0.2,0.1-0.4,0.2-0.5c0.1-0.1,0.3-0.2,0.5-0.2h10.6
		C140,138.1,140.2,138.2,140.3,138.3"/>
	<path id="XMLID_31_" class="st1" d="M142.9,152.8c-0.1-0.1-0.2-0.3-0.2-0.5v-13.4c0-0.2,0.1-0.4,0.2-0.5c0.1-0.1,0.3-0.2,0.5-0.2h9
		c0.2,0,0.4,0.1,0.5,0.2c0.1,0.1,0.2,0.3,0.2,0.5s-0.1,0.4-0.2,0.5c-0.1,0.1-0.3,0.2-0.5,0.2h-8.2v5.3h6c0.2,0,0.4,0.1,0.5,0.2
		c0.1,0.1,0.2,0.3,0.2,0.5c0,0.2-0.1,0.4-0.2,0.5c-0.1,0.1-0.3,0.2-0.5,0.2h-6v5.3h8.2c0.2,0,0.4,0.1,0.5,0.2
		c0.1,0.1,0.2,0.3,0.2,0.5s-0.1,0.4-0.2,0.5c-0.1,0.1-0.3,0.2-0.5,0.2h-9C143.2,153,143.1,153,142.9,152.8"/>
	<path id="XMLID_32_" class="st1" d="M170.7,138.3c0.1,0.1,0.2,0.3,0.2,0.5v13.4c0,0.2-0.1,0.4-0.2,0.5c-0.1,0.1-0.3,0.2-0.5,0.2
		c-0.2,0-0.4-0.1-0.5-0.2c-0.1-0.1-0.2-0.3-0.2-0.5v-10.8l-5.3,10.9c-0.2,0.2-0.4,0.4-0.7,0.4c-0.3,0-0.5-0.2-0.7-0.5l-5.3-10.6
		v10.7c0,0.2-0.1,0.4-0.2,0.5c-0.1,0.1-0.3,0.2-0.5,0.2c-0.2,0-0.4-0.1-0.5-0.2c-0.1-0.1-0.2-0.3-0.2-0.5v-13.4
		c0-0.2,0.1-0.4,0.2-0.5c0.1-0.1,0.3-0.2,0.5-0.2c0.3,0,0.5,0.1,0.7,0.4l6.1,12.2l6-12.2c0.2-0.3,0.4-0.4,0.7-0.4
		C170.3,138.1,170.5,138.2,170.7,138.3"/>
	<path id="XMLID_33_" class="st1" d="M183.3,152.2c-1.1-0.7-2-1.6-2.7-2.8c-0.7-1.2-1-2.5-1-3.8c0-1.4,0.3-2.6,1-3.8
		c0.7-1.2,1.6-2.1,2.7-2.8c1.1-0.7,2.4-1,3.7-1c0.9,0,1.8,0.1,2.5,0.4c0.8,0.3,1.5,0.7,2.2,1.3c0.1,0.1,0.2,0.2,0.2,0.4
		c0,0.1,0,0.2-0.1,0.3c-0.1,0.1-0.1,0.1-0.2,0.2c0,0.1-0.1,0.2-0.2,0.2c-0.1,0.1-0.2,0.1-0.3,0.1c-0.2,0-0.4-0.1-0.5-0.2
		c-0.5-0.4-1-0.8-1.6-1c-0.6-0.2-1.3-0.3-2-0.3c-1.1,0-2.1,0.3-3,0.9c-0.9,0.6-1.6,1.3-2.2,2.3c-0.5,1-0.8,2-0.8,3.1
		c0,1.1,0.3,2.2,0.8,3.1c0.5,1,1.3,1.7,2.2,2.3c0.9,0.6,1.9,0.8,3,0.8c1.4,0,2.6-0.4,3.8-1.3c0.1-0.1,0.3-0.2,0.4-0.2
		c0.2,0,0.4,0.1,0.5,0.2c0.1,0.1,0.2,0.3,0.2,0.5c0,0.2-0.1,0.4-0.2,0.5c-1.2,1.1-2.8,1.6-4.7,1.6
		C185.7,153.2,184.4,152.9,183.3,152.2"/>
	<path id="XMLID_34_" class="st1" d="M195.3,152.8c-0.1-0.1-0.2-0.3-0.2-0.5v-13.4c0-0.2,0.1-0.4,0.2-0.5c0.1-0.1,0.3-0.2,0.5-0.2h9
		c0.2,0,0.4,0.1,0.5,0.2c0.1,0.1,0.2,0.3,0.2,0.5s-0.1,0.4-0.2,0.5c-0.1,0.1-0.3,0.2-0.5,0.2h-8.2v5.3h6c0.2,0,0.4,0.1,0.5,0.2
		c0.1,0.1,0.2,0.3,0.2,0.5c0,0.2-0.1,0.4-0.2,0.5c-0.1,0.1-0.3,0.2-0.5,0.2h-6v5.3h8.2c0.2,0,0.4,0.1,0.5,0.2
		c0.1,0.1,0.2,0.3,0.2,0.5s-0.1,0.4-0.2,0.5c-0.1,0.1-0.3,0.2-0.5,0.2h-9C195.6,153,195.4,153,195.3,152.8"/>
	<path id="XMLID_35_" class="st1" d="M208.5,152.8c-0.1-0.1-0.2-0.3-0.2-0.5v-13.4c0-0.2,0.1-0.4,0.2-0.5c0.1-0.1,0.3-0.2,0.5-0.2
		c0.2,0,0.4,0.1,0.5,0.2c0.1,0.1,0.2,0.3,0.2,0.5v12.8h7.5c0.2,0,0.4,0.1,0.5,0.2c0.1,0.1,0.2,0.3,0.2,0.5c0,0.2-0.1,0.4-0.2,0.5
		c-0.1,0.1-0.3,0.2-0.5,0.2H209C208.8,153,208.6,153,208.5,152.8"/>
	<path id="XMLID_36_" class="st1" d="M220.6,152.8c-0.1-0.1-0.2-0.3-0.2-0.5v-13.4c0-0.2,0.1-0.4,0.2-0.5c0.1-0.1,0.3-0.2,0.5-0.2
		c0.2,0,0.4,0.1,0.5,0.2c0.1,0.1,0.2,0.3,0.2,0.5v12.8h7.5c0.2,0,0.4,0.1,0.5,0.2c0.1,0.1,0.2,0.3,0.2,0.5c0,0.2-0.1,0.4-0.2,0.5
		c-0.1,0.1-0.3,0.2-0.5,0.2h-8.2C220.9,153,220.7,153,220.6,152.8"/>
	<path id="XMLID_37_" class="st1" d="M233.8,152.4c-0.9-0.5-1.6-1.2-2-2.1c0-0.1-0.1-0.2-0.1-0.3c0-0.2,0.1-0.3,0.2-0.5
		c0.1-0.1,0.3-0.2,0.5-0.2c0.2,0,0.3,0,0.4,0.1c0.1,0.1,0.2,0.2,0.3,0.4c0.3,0.6,0.8,1,1.5,1.4c0.7,0.4,1.5,0.5,2.4,0.5
		c1,0,1.9-0.3,2.5-0.8c0.6-0.5,1-1.2,1-2.1c0-0.8-0.3-1.5-0.9-2c-0.6-0.5-1.5-0.9-2.7-1.1c-1.5-0.2-2.6-0.6-3.5-1.4
		c-0.8-0.7-1.3-1.7-1.3-2.7c0-0.8,0.2-1.4,0.6-2c0.4-0.6,1-1,1.7-1.3c0.7-0.3,1.6-0.5,2.5-0.5c1,0,1.9,0.2,2.7,0.7
		c0.8,0.4,1.4,1,1.8,1.7c0.1,0.1,0.1,0.3,0.1,0.5c0,0.2-0.1,0.4-0.3,0.6c-0.1,0-0.2,0.1-0.3,0.1c-0.1,0-0.3,0-0.4-0.1
		c-0.1-0.1-0.2-0.2-0.3-0.3c-0.7-1.1-1.8-1.7-3.2-1.7c-1,0-1.8,0.2-2.4,0.7c-0.6,0.4-0.9,1.1-0.9,1.9c0,1.5,1.2,2.4,3.6,2.7
		c1.6,0.2,2.8,0.7,3.5,1.5c0.8,0.7,1.2,1.7,1.2,2.9c0,0.9-0.2,1.7-0.7,2.3c-0.4,0.7-1,1.1-1.8,1.5c-0.8,0.3-1.6,0.5-2.5,0.5
		C235.9,153.2,234.8,153,233.8,152.4"/>
	<path id="XMLID_38_" class="st1" d="M253.7,152.2c-1.1-0.7-2-1.6-2.7-2.8c-0.7-1.2-1-2.5-1-3.8c0-1.4,0.3-2.6,1-3.8
		c0.7-1.2,1.6-2.1,2.7-2.8c1.1-0.7,2.4-1,3.7-1c0.9,0,1.8,0.1,2.5,0.4c0.8,0.3,1.5,0.7,2.2,1.3c0.1,0.1,0.2,0.2,0.2,0.4
		c0,0.1,0,0.2-0.1,0.3c-0.1,0.1-0.1,0.1-0.2,0.2c0,0.1-0.1,0.2-0.2,0.2c-0.1,0.1-0.2,0.1-0.3,0.1c-0.2,0-0.4-0.1-0.5-0.2
		c-0.5-0.4-1-0.8-1.6-1c-0.6-0.2-1.3-0.3-2-0.3c-1.1,0-2.1,0.3-3,0.9c-0.9,0.6-1.6,1.3-2.2,2.3c-0.5,1-0.8,2-0.8,3.1
		c0,1.1,0.3,2.2,0.8,3.1c0.5,1,1.3,1.7,2.2,2.3c0.9,0.6,1.9,0.8,3,0.8c1.4,0,2.6-0.4,3.8-1.3c0.1-0.1,0.3-0.2,0.4-0.2
		c0.2,0,0.4,0.1,0.5,0.2c0.1,0.1,0.2,0.3,0.2,0.5c0,0.2-0.1,0.4-0.2,0.5c-1.2,1.1-2.8,1.6-4.7,1.6
		C256.1,153.2,254.9,152.9,253.7,152.2"/>
	<path id="XMLID_39_" class="st1" d="M265.7,152.8c-0.1-0.1-0.2-0.3-0.2-0.5v-13.4c0-0.2,0.1-0.4,0.2-0.5c0.1-0.1,0.3-0.2,0.5-0.2h9
		c0.2,0,0.4,0.1,0.5,0.2c0.1,0.1,0.2,0.3,0.2,0.5s-0.1,0.4-0.2,0.5c-0.1,0.1-0.3,0.2-0.5,0.2H267v5.3h6c0.2,0,0.4,0.1,0.5,0.2
		c0.1,0.1,0.2,0.3,0.2,0.5c0,0.2-0.1,0.4-0.2,0.5c-0.1,0.1-0.3,0.2-0.5,0.2h-6v5.3h8.2c0.2,0,0.4,0.1,0.5,0.2
		c0.1,0.1,0.2,0.3,0.2,0.5s-0.1,0.4-0.2,0.5c-0.1,0.1-0.3,0.2-0.5,0.2h-9C266,153,265.8,153,265.7,152.8"/>
	<path id="XMLID_40_" class="st1" d="M278.9,152.8c-0.1-0.1-0.2-0.3-0.2-0.5v-13.4c0-0.2,0.1-0.4,0.2-0.5c0.1-0.1,0.3-0.2,0.5-0.2
		c0.2,0,0.4,0.1,0.6,0.3l9.1,12v-11.5c0-0.2,0.1-0.4,0.2-0.5c0.1-0.1,0.3-0.2,0.5-0.2c0.2,0,0.4,0.1,0.5,0.2
		c0.1,0.1,0.2,0.3,0.2,0.5v13.4c0,0.2-0.1,0.4-0.2,0.5c-0.1,0.1-0.3,0.2-0.5,0.2c-0.3,0-0.4-0.1-0.6-0.2l-9.2-12v11.5
		c0,0.2-0.1,0.4-0.2,0.5c-0.1,0.1-0.3,0.2-0.5,0.2C279.2,153,279.1,153,278.9,152.8"/>
	<path id="XMLID_41_" class="st1" d="M304.6,138.3c0.1,0.1,0.2,0.3,0.2,0.5c0,0.2-0.1,0.4-0.2,0.5c-0.1,0.1-0.3,0.2-0.5,0.2h-4.6
		v12.8c0,0.2-0.1,0.4-0.2,0.5c-0.1,0.1-0.3,0.2-0.5,0.2c-0.2,0-0.4-0.1-0.5-0.2c-0.1-0.1-0.2-0.3-0.2-0.5v-12.8h-4.5
		c-0.2,0-0.4-0.1-0.5-0.2c-0.1-0.1-0.2-0.3-0.2-0.5c0-0.2,0.1-0.4,0.2-0.5c0.1-0.1,0.3-0.2,0.5-0.2h10.6
		C304.3,138.1,304.5,138.2,304.6,138.3"/>
	<path id="XMLID_42_" class="st1" d="M307.2,152.8c-0.1-0.1-0.2-0.3-0.2-0.5v-13.4c0-0.2,0.1-0.4,0.2-0.5c0.1-0.1,0.3-0.2,0.5-0.2h9
		c0.2,0,0.4,0.1,0.5,0.2c0.1,0.1,0.2,0.3,0.2,0.5s-0.1,0.4-0.2,0.5c-0.1,0.1-0.3,0.2-0.5,0.2h-8.2v5.3h6c0.2,0,0.4,0.1,0.5,0.2
		c0.1,0.1,0.2,0.3,0.2,0.5c0,0.2-0.1,0.4-0.2,0.5c-0.1,0.1-0.3,0.2-0.5,0.2h-6v5.3h8.2c0.2,0,0.4,0.1,0.5,0.2
		c0.1,0.1,0.2,0.3,0.2,0.5s-0.1,0.4-0.2,0.5c-0.1,0.1-0.3,0.2-0.5,0.2h-9C307.5,153,307.4,153,307.2,152.8"/>
	<path id="XMLID_43_" class="st1" d="M329.7,152.4c0,0.2-0.1,0.3-0.2,0.5c-0.1,0.1-0.3,0.2-0.6,0.2c-0.2,0-0.3,0-0.4-0.1
		c-0.1-0.1-0.2-0.2-0.3-0.3l-3.4-5.5h-0.3h-2.8v5.1c0,0.2-0.1,0.4-0.2,0.5c-0.1,0.1-0.3,0.2-0.5,0.2c-0.2,0-0.4-0.1-0.5-0.2
		c-0.1-0.1-0.2-0.3-0.2-0.5v-13.4c0-0.2,0.1-0.4,0.2-0.5c0.1-0.1,0.3-0.2,0.5-0.2h3.6c0.9,0,1.8,0.2,2.5,0.6
		c0.7,0.4,1.3,0.9,1.7,1.6c0.4,0.7,0.6,1.5,0.6,2.4c0,1-0.3,1.8-0.8,2.6c-0.5,0.7-1.2,1.3-2.2,1.6l3.1,5
		C329.7,152.1,329.7,152.2,329.7,152.4 M324.6,145.7c0.6,0,1.2-0.1,1.7-0.4c0.5-0.3,0.9-0.6,1.2-1.1c0.3-0.5,0.4-1,0.4-1.6
		c0-0.6-0.1-1.2-0.4-1.6c-0.3-0.5-0.7-0.9-1.2-1.1c-0.5-0.3-1.1-0.4-1.7-0.4h-2.8v6.2H324.6z"/>
	<path id="XMLID_46_" class="st0" d="M269.4,67.4c0,2.5-2,4.5-4.5,4.5s-4.5-2-4.5-4.5c0-2.5,2-4.5,4.5-4.5S269.4,65,269.4,67.4"/>
	<path id="XMLID_47_" class="st0" d="M332.6,66.9c0,2.5-2,4.5-4.5,4.5c-2.5,0-4.5-2-4.5-4.5c0-2.5,2-4.5,4.5-4.5
		C330.6,62.5,332.6,64.5,332.6,66.9"/>
	<path id="XMLID_48_" class="st2" d="M179,75c0,3-2.4,5.4-5.4,5.4c-3,0-5.4-2.4-5.4-5.4c0-3,2.4-5.4,5.4-5.4
		C176.6,69.7,179,72.1,179,75"/>
	<path id="XMLID_49_" class="st0" d="M190.4,69.2c0,3-2.4,5.4-5.4,5.4c-3,0-5.4-2.4-5.4-5.4c0-3,2.4-5.4,5.4-5.4
		C188,63.9,190.4,66.3,190.4,69.2"/>
	<path id="XMLID_50_" class="st0" d="M194.3,57.1c0,2.4-1.9,4.3-4.3,4.3c-2.4,0-4.3-1.9-4.3-4.3c0-2.4,1.9-4.3,4.3-4.3
		C192.3,52.8,194.3,54.7,194.3,57.1"/>
	<path id="XMLID_51_" class="st3" d="M166.3,74c0,3.6-2.9,6.6-6.6,6.6c-3.6,0-6.6-2.9-6.6-6.6c0-3.6,2.9-6.6,6.6-6.6
		C163.3,67.4,166.3,70.4,166.3,74"/>
	<path id="XMLID_52_" class="st1" d="M155.8,62.5c0,4.6-3.7,8.4-8.4,8.4c-4.6,0-8.4-3.7-8.4-8.4c0-4.6,3.7-8.4,8.4-8.4
		C152,54.1,155.8,57.9,155.8,62.5"/>
	<path id="XMLID_53_" class="st1" d="M14.3,120.3h-3.1C9,120.3,8,119.2,8,117H3.5c-2.3,0-3.5-1.5-3.5-4.4c0-1.9,0.5-3.4,1.5-4.4
		c0.8-0.8,1.8-1.3,2.9-1.3c1.4,0,2.7,0.8,3.4,1.7h0.1v-1.5H10v9.6c0,1,0.4,1.5,1.3,1.5h3.1V120.3z M7.9,115.1l0-4.5
		c-0.7-1.3-1.7-1.9-2.9-1.9c-0.8,0-1.4,0.3-1.9,1c-0.6,0.7-0.9,1.7-0.9,3.1c0,0.7,0.1,1.2,0.2,1.5c0.2,0.5,0.7,0.8,1.5,0.8H7.9z
		 M4.6,104.5H2.3v-2.4h2.3V104.5z M8.3,104.5H6v-2.4h2.3V104.5z"/>
	<path id="XMLID_58_" class="st1" d="M26.8,120.3h-2.7c-0.9,0-1.7-0.4-2.3-1.2c-0.4-0.4-0.6-0.9-0.8-1.3c-0.6,1.5-2.1,2.4-3.8,2.5
		h-4v-2h3.4c0.6,0,1.1-0.2,1.6-0.5c0.6-0.4,0.9-1,0.9-1.7c0.1,0.5,0.1-1.9,0-7h2.1c0,2,0,3.9,0.1,5.8c0,1.1,0.3,1.9,0.9,2.6
		c0.5,0.5,1.1,0.8,1.7,0.8h2.9v0.5v0.9V120.3z M19.7,124.9h-2.3v-2.3h2.3V124.9z M23.4,124.9h-2.3v-2.3h2.3V124.9z"/>
	<path id="XMLID_62_" class="st1" d="M39.6,120.3H26l0-2h4.6c-1.1-1.3-1.6-2.7-1.6-4.1c0-1.6,0.5-2.9,1.7-4c1-1,2.2-1.5,3.5-1.5
		c1.8,0,3.2,0.7,4.3,2l-1.3,1.1c-0.7-0.8-1.6-1.3-2.8-1.3c-0.6,0-1.3,0.3-1.9,0.8c-0.8,0.8-1.3,1.8-1.2,3.1c0,2.3,1.7,3.8,3.8,3.8
		h3.8L39.6,120.3z"/>
	<path id="XMLID_63_" class="st1" d="M59.4,120.3H43.3l0.6-2h8.3c-0.1-2-0.5-3.8-1.5-5.2c-0.9-1.4-1.8-2-2.8-2v-1.9
		c1.6,0,2.9,0.8,4,2.3c1.3,1.7,2,4,2.3,6.9h5.2V120.3z M50.5,106.8h-2.3v-2.4h2.3V106.8z"/>
	<path id="XMLID_66_" class="st1" d="M77.2,120.3H58.8l0-2h13.1c-0.1-2.3-0.7-4.1-1.9-5.6c-1.1-1.3-2.4-2-4-2
		c-1.4,0-2.8,0.4-4.2,1.2l-0.9-1.8c1.8-0.9,3.5-1.3,4.9-1.3c2.7,0,4.7,1,6.1,3c1.1,1.6,1.8,3.8,2.1,6.5h3.3V120.3z M66.8,124.8h-2.3
		v-2.3h2.3V124.8z"/>
	<path id="XMLID_69_" class="st1" d="M82.8,116.4c0,2.4-1.5,4-4.1,4h-2v-2h2c1.2,0,2.1-0.7,2.1-2.1c0-1.9,0-4.5-0.1-7.8
		c0-3.8-0.1-6.4-0.1-7.9h2.1c0,1.4,0,4,0.1,7.9C82.8,111.8,82.8,114.4,82.8,116.4"/>
	<polygon id="XMLID_70_" class="st1" points="89,120.3 86.9,120.3 86.7,100.6 88.9,100.6 	"/>
	<path id="XMLID_71_" class="st1" d="M105.6,120.3H103c-0.9,0-1.6-0.3-2.2-0.9c-0.7-0.6-1-1.6-1-2.7l-0.1-16.1h2.1l0.1,15.9
		c0,1.1,0.5,1.8,1.4,1.9h2.3V120.3z"/>
	<path id="XMLID_72_" class="st1" d="M112.7,116.4c0,2.4-1.5,4-4.1,4h-4v-2h4c1.2,0,2.1-0.7,2.1-2.1c0,0.3,0-2.1-0.1-7.1h2.1
		C112.6,114,112.7,116.4,112.7,116.4 M107.8,124.9h-2.3v-2.3h2.3V124.9z M111.5,124.9h-2.3v-2.3h2.3V124.9z"/>
	<path id="XMLID_76_" class="st1" d="M130.8,120.3H128c-0.9,0-1.6-0.4-2.3-1.1c-0.6-0.7-1-1.5-1.2-2.4c-1.2,2.2-3.9,3.5-7.3,3.5
		h-1.5v-2h1.3c1.4,0,2.7-0.3,3.7-0.8c1.5-0.8,2.2-2,2.2-3.6c0-0.4-0.1-4.9-0.2-13.3h2.1c0.1,3.2,0.1,8,0.2,14.4c0,1,0.3,1.9,1,2.6
		c0.6,0.5,1.2,0.8,1.8,0.8h2.7V120.3z M119.5,116.4c-0.6,0.4-1.3,0.4-2.1,0.4c0-2.7-0.1-8.1-0.2-16.3h2.1L119.5,116.4z"/>
	<path id="XMLID_79_" class="st1" d="M148.5,120.3h-19.4v-2H143c0-2.3-0.7-4.1-1.9-5.6c-1.1-1.3-2.4-2-4-2c-1.4,0-2.8,0.4-4.2,1.2
		l-0.9-1.8c1.9-0.9,3.5-1.3,5-1.3c2.7,0,4.7,1,6.1,3c1.2,1.6,1.9,3.8,2.1,6.5h3.3V120.3z M139,106.8h-2.3v-2.4h2.3V106.8z"/>
	<path id="XMLID_82_" class="st1" d="M159.3,120.3h-2.7c-0.9,0-1.7-0.4-2.3-1.2c-0.4-0.4-0.6-0.9-0.8-1.3c-0.6,1.5-2.1,2.4-3.8,2.5
		h-2v-2h1.4c0.5,0,1.1-0.2,1.6-0.5c0.6-0.4,0.9-1,0.9-1.7c0-4.2-0.1-9.5-0.2-15.7h2.1c0,4.1,0.1,9.1,0.2,14.8c0,0.8,0.4,1.6,1,2.2
		c0.5,0.5,1.1,0.8,1.7,0.8h2.9V120.3z"/>
	<path id="XMLID_83_" class="st1" d="M164.8,116.4c0,2.4-1.5,4-4.1,4h-2v-2h2c1.2,0,2.1-0.7,2.1-2.1c0-1.9,0-4.5-0.1-7.8
		c0-3.8-0.1-6.4-0.1-7.9h2.1c0,1.4,0,4,0.1,7.9C164.8,111.8,164.8,114.4,164.8,116.4"/>
	<path id="XMLID_84_" class="st1" d="M197.7,118.4v2h-2.5c-0.8,0-1.6-0.3-2.3-1c-0.7-0.7-1.1-1.5-1.2-2.6c-0.2-1.7-0.4-3-0.8-3.9
		c-0.6-1.3-1.6-2-3-2c-1,0-1.9,0.3-2.6,1.1c-0.7,0.7-1,1.6-1,2.7h5.5l0.1,3.8c0,2.4-0.8,4.4-2.4,6.1c-1.6,1.7-3.5,2.5-5.7,2.5
		c-2.2,0-4.1-0.9-5.7-2.5c-1.6-1.7-2.4-3.7-2.4-6.1c0-0.8-0.1-2-0.1-3.7h2.1c0,0.6,0,1.9,0.1,3.8c0,1.8,0.6,3.3,1.8,4.6
		c1.2,1.3,2.6,1.9,4.3,1.9c1.7,0,3.1-0.6,4.3-1.9c1.2-1.3,1.8-2.8,1.8-4.6l-0.1-1.7H182c0-5.1,2-7.7,5.8-7.7c2.3,0,3.9,1,4.8,3.1
		c0.5,0.9,0.8,2.5,1,4.5c0.1,1.1,1,1.9,1.9,1.9H197.7z M181.1,131.6h-2.3v-2.4h2.3V131.6z M184.9,131.6h-2.3v-2.4h2.3V131.6z"/>
	<path id="XMLID_88_" class="st1" d="M210,120.3h-2.7c-0.9,0-1.7-0.4-2.3-1.2c-0.4-0.4-0.6-0.9-0.8-1.3c-0.6,1.5-2.1,2.4-3.8,2.5
		H197v-2h2.8c0.5,0,1.1-0.2,1.6-0.5c0.6-0.4,0.9-1,0.9-1.7c0.1,0.5,0.1-1.9,0-7h2.1c0,2,0,3.9,0.1,5.8c0,1.1,0.3,1.9,0.9,2.6
		c0.5,0.5,1.1,0.8,1.7,0.8h2.9v0.5v0.9V120.3z M204.6,124.8h-2.3v-2.3h2.3V124.8z"/>
	<path id="XMLID_91_" class="st1" d="M230.3,120.3h-21v-2h3.4l-0.1-16.1h2.1l-0.2,13.6c1.2-2.6,2.8-4.5,4.9-5.7c1.5-0.8,3-1.2,4.3-1
		c2.6,0.3,4.4,1.6,5.5,4C229.9,114.9,230.3,117.3,230.3,120.3 M228.2,118.4c0-1.4-0.2-2.5-0.5-3.5c-0.7-2.4-2-3.7-3.9-3.8
		c-3.7-0.2-6.7,2.2-8.9,7.3H228.2z M223.3,106.8h-2.3v-2.4h2.3V106.8z"/>
	<path id="XMLID_95_" class="st1" d="M255.2,120.3h-4.6c-0.9,3.8-3.7,6.3-7.6,6.6c-0.2-0.4-0.5-1-0.9-1.9c1.5,0,2.9-0.4,4-1.3
		c1.1-0.9,1.9-2,2.3-3.4h-2.7c-1.4,0-2.5-0.5-3.4-1.6c-0.9-1.1-1.3-2.4-1.3-3.9c0-2,0.7-3.5,1.9-4.5c0.9-0.8,2-1.2,3.3-1.2
		c3.2,0,4.8,1.6,4.8,4.8v4.4h4.3V120.3z M248.8,118.4v-5.1c0-1.8-0.9-2.7-2.4-2.7c-0.8,0-1.5,0.3-2.1,1c-0.6,0.8-1,1.8-1,3.1
		c0,2,1.1,3.7,2.9,3.7H248.8z"/>
	<path id="XMLID_98_" class="st1" d="M261.9,116.4c0,2.4-1.5,4-4.1,4h-3.4v-2h3.4c1.2,0,2.1-0.7,2.1-2.1c0,0.3,0-2.1-0.1-7.1h2.1
		C261.9,114,261.9,116.4,261.9,116.4 M260.1,124.8h-2.3v-2.3h2.3V124.8z"/>
	<path id="XMLID_101_" class="st1" d="M268.5,98.7h-4.9l0.5-0.9h1.4c-0.3-0.4-0.5-0.9-0.5-1.5c0-1.2,0.9-2.1,2-2.1
		c0.6,0,1,0.2,1.4,0.7l-0.5,0.7c-0.3-0.3-0.6-0.5-0.9-0.5c-0.6,0-0.9,0.5-0.9,1.4c0,0.9,0.4,1.3,1.3,1.3h1.1V98.7z M268.1,120.3H266
		l-0.2-19.7h2.1L268.1,120.3z"/>
	<path id="XMLID_104_" class="st1" d="M288.7,118.4c0,0.3,0,1,0,2H286c-1.2,0-2.1-0.6-2.8-1.9c-0.2,2.4-1,4.4-2.4,5.9
		c-1.4,1.6-3.3,2.4-5.5,2.6c-0.2-0.4-0.5-1-0.9-1.9c2,0,3.6-0.7,4.9-2.1c1.2-1.4,1.8-3.1,1.8-5.1l0-8.6h2.1l0,6.1
		c0,0.9,0.3,1.7,0.9,2.3c0.5,0.5,1.1,0.8,1.7,0.8H288.7z M283.3,106.8H281v-2.4h2.3V106.8z"/>
	<path id="XMLID_107_" class="st1" d="M303.7,120.3H288v-2h13.6c-0.1-2.2-0.8-4-2-5.3c-1.3-1.4-2.8-2-4.6-2c-1.4,0-2.8,0.4-4.2,1.3
		l-1-1.8c0,0,0.1,0,0.2-0.1l7.3-7.6l1.4,1.4l-5.3,5.2c0.7-0.1,1.4-0.2,2.1-0.2c2.9,0,5.1,1.1,6.6,3.4
		C303.1,114.6,303.7,117.1,303.7,120.3"/>
	<path id="XMLID_108_" class="st1" d="M317.6,118.4c0,0.3,0,1,0,2h-2.7c-1.2,0-2.1-0.6-2.8-1.9c-0.2,2.4-1,4.4-2.4,5.9
		c-1.4,1.6-3.3,2.4-5.5,2.6c-0.2-0.4-0.5-1-0.9-1.9c2,0,3.6-0.7,4.9-2.1c1.2-1.4,1.8-3.1,1.8-5.1l0-8.6h2.1l0,6.1
		c0,0.9,0.3,1.7,0.9,2.3c0.5,0.5,1.1,0.8,1.7,0.8H317.6z"/>
	<path id="XMLID_109_" class="st1" d="M330.1,114.6c0,3.6-1.9,5.7-5,5.7h-8.5v-2h4.4c-0.8-1.1-1.3-2.3-1.3-3.8
		c0-3.5,1.9-5.7,5.1-5.7c1.6,0,2.9,0.6,3.9,1.8C329.6,111.8,330.1,113.1,330.1,114.6 M328,114.6c0-1.3-0.3-2.3-1-3
		c-0.6-0.6-1.3-1-2.1-1s-1.5,0.3-2,1c-0.6,0.7-0.9,1.7-0.9,3c0,1.3,0.3,2.3,1,3c0.6,0.6,1.3,1,2.1,1c0.9,0,1.5-0.3,2-1
		C327.7,116.9,328,115.9,328,114.6"/>
</g>
</svg>
